<?xml version="1.0" encoding="UTF-8"?>
<svg id="b" data-name="Layer 2" xmlns="http://www.w3.org/2000/svg" viewBox="0 0 4560.86 970.91">
  <defs>
    <style>
      .d {
        fill: none;
      }

      .e {
        fill: #fff;
      }

      .f {
        fill: #fcf3f5;
      }
    </style>
  </defs>
  <g id="c" data-name="Layer 1">
    <g>
      <rect class="d" width="4560.86" height="970.91"/>
      <g>
        <g>
          <path class="f" d="M107.7,800.1h.72l50.91-138.62h25.57l-66.44,169.21h-21.99l-65.96-169.21h26.29l50.91,138.62Z"/>
          <path class="f" d="M228.63,830.69h-23.66v-169.21h23.66v169.21Z"/>
          <path class="f" d="M269.74,661.48h58.08c10.83,0,21.67,1.59,32.5,4.78,10.83,3.19,20.63,8.21,29.4,15.06,8.76,6.85,15.85,15.62,21.27,26.29,5.42,10.68,8.13,23.5,8.13,38.48s-2.71,27.05-8.13,37.64c-5.42,10.6-12.51,19.36-21.27,26.29-8.76,6.93-18.56,12.11-29.4,15.54-10.84,3.43-21.67,5.14-32.5,5.14h-58.08v-169.21ZM293.4,809.9h29.64c10.2,0,19.64-1.43,28.32-4.3,8.68-2.87,16.17-7.01,22.47-12.43,6.29-5.41,11.19-12.11,14.7-20.08,3.5-7.97,5.26-16.97,5.26-27.01s-1.75-19.75-5.26-27.72c-3.51-7.97-8.41-14.62-14.7-19.96-6.3-5.34-13.78-9.4-22.47-12.19-8.69-2.79-18.13-4.18-28.32-4.18h-29.64v127.87Z"/>
          <path class="f" d="M475.27,809.66h88.43v21.03h-112.09v-169.21h108.51v20.79h-84.84v50.67h79.83v20.32h-79.83v56.4Z"/>
          <path class="f" d="M765.9,745.85c0,13.07-2.27,25.06-6.81,35.97-4.54,10.92-10.8,20.32-18.76,28.2-7.97,7.89-17.45,14.02-28.44,18.4-10.99,4.38-22.94,6.57-35.85,6.57s-24.82-2.19-35.73-6.57c-10.92-4.38-20.36-10.52-28.32-18.4-7.97-7.89-14.18-17.29-18.64-28.2-4.46-10.91-6.69-22.9-6.69-35.97s2.23-25.29,6.69-36.21c4.46-10.91,10.67-20.23,18.64-27.96,7.96-7.73,17.41-13.74,28.32-18.04,10.91-4.3,22.82-6.45,35.73-6.45s24.86,2.15,35.85,6.45c10.99,4.3,20.47,10.32,28.44,18.04,7.97,7.73,14.22,17.05,18.76,27.96,4.54,10.92,6.81,22.99,6.81,36.21ZM740.32,745.85c0-9.24-1.52-17.96-4.54-26.17-3.03-8.2-7.33-15.42-12.91-21.63-5.58-6.21-12.31-11.11-20.2-14.7s-16.77-5.38-26.65-5.38-18.52,1.79-26.41,5.38c-7.89,3.58-14.58,8.48-20.08,14.7-5.5,6.21-9.76,13.42-12.79,21.63-3.03,8.21-4.54,16.93-4.54,26.17s1.51,18.25,4.54,26.53c3.02,8.29,7.33,15.5,12.91,21.63,5.58,6.14,12.27,10.96,20.08,14.46,7.8,3.51,16.57,5.26,26.29,5.26s18.56-1.75,26.53-5.26c7.96-3.5,14.74-8.32,20.31-14.46,5.58-6.13,9.88-13.34,12.91-21.63,3.03-8.28,4.54-17.12,4.54-26.53Z"/>
          <path class="f" d="M925.79,696.37c-5.1-5.58-11.59-10.04-19.48-13.38-7.89-3.35-16.69-5.02-26.41-5.02s-18.8,1.79-26.77,5.38c-7.97,3.58-14.74,8.48-20.32,14.7-5.58,6.21-9.88,13.42-12.91,21.63-3.03,8.21-4.54,16.93-4.54,26.17s1.51,18.25,4.54,26.53c3.03,8.29,7.33,15.5,12.91,21.63,5.58,6.14,12.43,10.96,20.55,14.46,8.13,3.51,17.21,5.26,27.25,5.26,7.97,0,15.3-.72,21.99-2.15,6.69-1.43,12.51-3.5,17.45-6.21v-47.08h-37.52v-20.08h60.95v81.98c-8.93,4.78-18.64,8.45-29.16,10.99-10.52,2.55-21.99,3.82-34.42,3.82-13.23,0-25.38-2.19-36.45-6.57-11.08-4.38-20.6-10.52-28.56-18.4-7.97-7.89-14.18-17.29-18.64-28.2-4.46-10.91-6.69-22.9-6.69-35.97s2.27-25.29,6.81-36.21c4.54-10.91,10.83-20.23,18.88-27.96,8.04-7.73,17.57-13.74,28.56-18.04,10.99-4.3,22.94-6.45,35.85-6.45,13.54,0,25.61,1.99,36.21,5.97,10.59,3.98,19.4,9.32,26.41,16.01l-16.49,17.21Z"/>
          <path class="f" d="M1007.77,830.69h-23.66v-169.21h54.25c8.13,0,15.85.84,23.18,2.51,7.33,1.67,13.74,4.34,19.24,8.01,5.5,3.67,9.84,8.48,13.03,14.46,3.19,5.97,4.78,13.26,4.78,21.87,0,12.43-3.82,22.47-11.47,30.11-7.65,7.65-17.53,12.51-29.64,14.58l47.32,77.67h-28.68l-43.02-75.29h-25.33v75.29ZM1007.77,735.57h27.25c5.58,0,10.75-.48,15.54-1.43s8.96-2.51,12.55-4.66c3.58-2.15,6.41-4.94,8.48-8.36,2.07-3.42,3.11-7.69,3.11-12.79s-1.04-9.36-3.11-12.79c-2.07-3.42-4.82-6.17-8.25-8.25-3.43-2.07-7.45-3.54-12.07-4.42-4.62-.87-9.48-1.31-14.58-1.31h-28.92v54.01Z"/>
          <path class="f" d="M1137.78,830.69h-26.29l73.37-169.21h21.51l72.66,169.21h-26.77l-17.21-41.59h-80.3l-16.97,41.59ZM1163.12,768.31h63.33l-31.55-79.35-31.79,79.35Z"/>
          <path class="f" d="M1300.78,661.48h51.62c9.08,0,17.37.92,24.86,2.75,7.49,1.83,13.86,4.66,19.12,8.49,5.26,3.82,9.32,8.69,12.19,14.58,2.87,5.9,4.3,12.99,4.3,21.27s-1.55,15.7-4.66,21.75c-3.11,6.06-7.41,10.99-12.91,14.82-5.5,3.82-12.03,6.65-19.6,8.48-7.57,1.83-15.74,2.75-24.5,2.75h-26.77v74.33h-23.66v-169.21ZM1324.44,736.29h25.09c5.74,0,11.03-.51,15.89-1.55,4.86-1.03,9.04-2.63,12.55-4.78,3.5-2.15,6.21-4.98,8.13-8.48,1.91-3.5,2.87-7.81,2.87-12.91s-1-9.36-2.99-12.79c-1.99-3.42-4.7-6.21-8.13-8.37-3.43-2.15-7.53-3.66-12.31-4.54-4.78-.87-9.96-1.31-15.54-1.31h-25.57v54.73Z"/>
          <path class="f" d="M1442.98,661.48h23.66v70.74h85.56v-70.74h23.9v169.21h-23.9v-77.44h-85.56v77.44h-23.66v-169.21Z"/>
          <path class="f" d="M1640.87,809.66h88.43v21.03h-112.09v-169.21h108.51v20.79h-84.84v50.67h79.83v20.32h-79.83v56.4Z"/>
          <path class="f" d="M1784.51,830.69h-23.66v-169.21h54.25c8.13,0,15.85.84,23.18,2.51,7.33,1.67,13.74,4.34,19.24,8.01,5.5,3.67,9.84,8.48,13.03,14.46,3.19,5.97,4.78,13.26,4.78,21.87,0,12.43-3.82,22.47-11.47,30.11-7.65,7.65-17.53,12.51-29.64,14.58l47.32,77.67h-28.68l-43.02-75.29h-25.33v75.29ZM1784.51,735.57h27.25c5.58,0,10.75-.48,15.54-1.43s8.96-2.51,12.55-4.66c3.58-2.15,6.41-4.94,8.48-8.36,2.07-3.42,3.11-7.69,3.11-12.79s-1.04-9.36-3.11-12.79c-2.07-3.42-4.82-6.17-8.25-8.25-3.43-2.07-7.45-3.54-12.07-4.42-4.62-.87-9.48-1.31-14.58-1.31h-28.92v54.01Z"/>
          <path class="f" d="M1914.29,862.48h-19.12l16.49-59.75h22.47l-19.84,59.75Z"/>
          <path class="f" d="M2045.97,809.66h88.43v21.03h-112.09v-169.21h108.51v20.79h-84.84v50.67h79.83v20.32h-79.83v56.4Z"/>
          <path class="f" d="M2165.95,661.48h58.08c10.83,0,21.67,1.59,32.5,4.78,10.83,3.19,20.63,8.21,29.4,15.06,8.76,6.85,15.85,15.62,21.27,26.29,5.42,10.68,8.13,23.5,8.13,38.48s-2.71,27.05-8.13,37.64c-5.42,10.6-12.51,19.36-21.27,26.29-8.76,6.93-18.56,12.11-29.4,15.54-10.84,3.43-21.67,5.14-32.5,5.14h-58.08v-169.21ZM2189.61,809.9h29.64c10.2,0,19.64-1.43,28.32-4.3,8.68-2.87,16.17-7.01,22.47-12.43,6.29-5.41,11.19-12.11,14.7-20.08,3.5-7.97,5.26-16.97,5.26-27.01s-1.75-19.75-5.26-27.72c-3.51-7.97-8.41-14.62-14.7-19.96-6.3-5.34-13.78-9.4-22.47-12.19-8.69-2.79-18.13-4.18-28.32-4.18h-29.64v127.87Z"/>
          <path class="f" d="M2371.49,830.69h-23.66v-169.21h23.66v169.21Z"/>
          <path class="f" d="M2471.87,830.69h-23.66v-148.42h-54.25v-20.79h132.17v20.79h-54.25v148.42Z"/>
          <path class="f" d="M2712.06,745.85c0,13.07-2.27,25.06-6.81,35.97-4.54,10.92-10.8,20.32-18.76,28.2-7.97,7.89-17.45,14.02-28.44,18.4-10.99,4.38-22.94,6.57-35.85,6.57s-24.82-2.19-35.73-6.57c-10.92-4.38-20.36-10.52-28.32-18.4-7.97-7.89-14.18-17.29-18.64-28.2-4.46-10.91-6.69-22.9-6.69-35.97s2.23-25.29,6.69-36.21c4.46-10.91,10.67-20.23,18.64-27.96,7.96-7.73,17.41-13.74,28.32-18.04,10.91-4.3,22.82-6.45,35.73-6.45s24.86,2.15,35.85,6.45c10.99,4.3,20.47,10.32,28.44,18.04,7.97,7.73,14.22,17.05,18.76,27.96,4.54,10.92,6.81,22.99,6.81,36.21ZM2686.49,745.85c0-9.24-1.52-17.96-4.54-26.17-3.03-8.2-7.33-15.42-12.91-21.63-5.58-6.21-12.31-11.11-20.2-14.7s-16.77-5.38-26.65-5.38-18.52,1.79-26.41,5.38c-7.89,3.58-14.58,8.48-20.08,14.7-5.5,6.21-9.76,13.42-12.79,21.63-3.03,8.21-4.54,16.93-4.54,26.17s1.51,18.25,4.54,26.53c3.02,8.29,7.33,15.5,12.91,21.63,5.58,6.14,12.27,10.96,20.08,14.46,7.8,3.51,16.57,5.26,26.29,5.26s18.56-1.75,26.53-5.26c7.96-3.5,14.74-8.32,20.31-14.46,5.58-6.13,9.88-13.34,12.91-21.63,3.03-8.28,4.54-17.12,4.54-26.53Z"/>
          <path class="f" d="M2767.99,830.69h-23.66v-169.21h54.25c8.13,0,15.85.84,23.18,2.51,7.33,1.67,13.74,4.34,19.24,8.01,5.5,3.67,9.84,8.48,13.03,14.46,3.19,5.97,4.78,13.26,4.78,21.87,0,12.43-3.82,22.47-11.47,30.11-7.65,7.65-17.53,12.51-29.64,14.58l47.32,77.67h-28.68l-43.02-75.29h-25.33v75.29ZM2767.99,735.57h27.25c5.58,0,10.75-.48,15.54-1.43s8.96-2.51,12.55-4.66c3.58-2.15,6.41-4.94,8.48-8.36,2.07-3.42,3.11-7.69,3.11-12.79s-1.04-9.36-3.11-12.79c-2.07-3.42-4.82-6.17-8.25-8.25-3.43-2.07-7.45-3.54-12.07-4.42-4.62-.87-9.48-1.31-14.58-1.31h-28.92v54.01Z"/>
          <path class="f" d="M3061.72,790.78l38.72,39.91h-31.31l-21.03-22.23c-6.38,7.97-13.59,14.18-21.63,18.64-8.05,4.46-17.97,6.69-29.75,6.69-7.33,0-14.34-1.04-21.03-3.11-6.69-2.07-12.55-5.14-17.57-9.2-5.02-4.06-9-9.08-11.95-15.06-2.95-5.97-4.42-12.86-4.42-20.67,0-6.37,1.08-12.07,3.24-17.09,2.16-5.02,5.01-9.52,8.53-13.5,3.53-3.98,7.61-7.49,12.26-10.52,4.65-3.02,9.37-5.65,14.18-7.89-5.47-5.58-10.11-11.51-13.89-17.81-3.79-6.29-5.68-13.26-5.68-20.91,0-6.85,1.23-12.82,3.7-17.93,2.47-5.1,5.81-9.36,10.04-12.79,4.22-3.42,9.04-5.97,14.46-7.65,5.41-1.67,11.07-2.51,16.97-2.51s11.47.84,16.73,2.51c5.26,1.67,9.88,4.18,13.86,7.53,3.98,3.35,7.17,7.49,9.56,12.43,2.39,4.94,3.59,10.68,3.59,17.21,0,5.58-1,10.6-2.99,15.06-1.99,4.46-4.66,8.53-8.01,12.19-3.35,3.67-7.21,6.93-11.59,9.8-4.38,2.87-8.96,5.42-13.74,7.65l33.7,34.66,21.27-35.85h26.29l-32.5,50.43ZM2992.88,751.58c-8.29,3.51-14.9,7.89-19.84,13.15-4.94,5.26-7.41,12.19-7.41,20.79,0,4.46.87,8.53,2.63,12.19,1.75,3.67,4.1,6.77,7.05,9.32,2.95,2.55,6.33,4.5,10.16,5.86,3.82,1.36,7.73,2.03,11.71,2.03,8.13,0,14.97-1.79,20.55-5.38,5.58-3.58,10.67-8.88,15.3-15.89l-40.15-42.06ZM3027.54,697.57c0-6.05-2.02-11.15-6.06-15.3-4.04-4.14-9.23-6.21-15.57-6.21s-11.89,2.07-16.17,6.21c-4.28,4.15-6.42,9.56-6.42,16.25,0,2.71.52,5.42,1.55,8.13,1.03,2.71,2.34,5.38,3.92,8.01,1.58,2.63,3.37,5.06,5.35,7.29,1.98,2.23,3.92,4.22,5.83,5.98,3.48-1.59,6.89-3.35,10.22-5.26,3.33-1.91,6.26-4.14,8.79-6.69,2.54-2.55,4.6-5.34,6.18-8.37,1.58-3.02,2.38-6.37,2.38-10.04Z"/>
          <path class="f" d="M3183.37,661.48h58.08c10.83,0,21.67,1.59,32.5,4.78,10.83,3.19,20.63,8.21,29.4,15.06,8.76,6.85,15.85,15.62,21.27,26.29,5.42,10.68,8.13,23.5,8.13,38.48s-2.71,27.05-8.13,37.64c-5.42,10.6-12.51,19.36-21.27,26.29-8.76,6.93-18.56,12.11-29.4,15.54-10.84,3.43-21.67,5.14-32.5,5.14h-58.08v-169.21ZM3207.03,809.9h29.64c10.2,0,19.64-1.43,28.32-4.3,8.68-2.87,16.17-7.01,22.47-12.43,6.29-5.41,11.19-12.11,14.7-20.08,3.5-7.97,5.26-16.97,5.26-27.01s-1.75-19.75-5.26-27.72c-3.51-7.97-8.41-14.62-14.7-19.96-6.3-5.34-13.78-9.4-22.47-12.19-8.69-2.79-18.13-4.18-28.32-4.18h-29.64v127.87Z"/>
          <path class="f" d="M3388.9,809.66h88.43v21.03h-112.09v-169.21h108.51v20.79h-84.84v50.67h79.83v20.32h-79.83v56.4Z"/>
          <path class="f" d="M3565.04,800.1h.72l50.91-138.62h25.57l-66.44,169.21h-21.99l-65.96-169.21h26.29l50.91,138.62Z"/>
          <path class="f" d="M3685.98,809.66h88.43v21.03h-112.09v-169.21h108.51v20.79h-84.84v50.67h79.83v20.32h-79.83v56.4Z"/>
          <path class="f" d="M3829.62,809.66h75.52v21.03h-99.19v-169.21h23.66v148.18Z"/>
          <path class="f" d="M4091.56,745.85c0,13.07-2.27,25.06-6.81,35.97-4.54,10.92-10.8,20.32-18.76,28.2-7.97,7.89-17.45,14.02-28.44,18.4-10.99,4.38-22.94,6.57-35.85,6.57s-24.82-2.19-35.73-6.57c-10.92-4.38-20.36-10.52-28.32-18.4-7.97-7.89-14.18-17.29-18.64-28.2-4.46-10.91-6.69-22.9-6.69-35.97s2.23-25.29,6.69-36.21c4.46-10.91,10.67-20.23,18.64-27.96,7.96-7.73,17.41-13.74,28.32-18.04,10.91-4.3,22.82-6.45,35.73-6.45s24.86,2.15,35.85,6.45c10.99,4.3,20.47,10.32,28.44,18.04,7.97,7.73,14.22,17.05,18.76,27.96,4.54,10.92,6.81,22.99,6.81,36.21ZM4065.99,745.85c0-9.24-1.52-17.96-4.54-26.17-3.03-8.2-7.33-15.42-12.91-21.63-5.58-6.21-12.31-11.11-20.2-14.7s-16.77-5.38-26.65-5.38-18.52,1.79-26.41,5.38c-7.89,3.58-14.58,8.48-20.08,14.7-5.5,6.21-9.76,13.42-12.79,21.63-3.03,8.21-4.54,16.93-4.54,26.17s1.51,18.25,4.54,26.53c3.02,8.29,7.33,15.5,12.91,21.63,5.58,6.14,12.27,10.96,20.08,14.46,7.8,3.51,16.57,5.26,26.29,5.26s18.56-1.75,26.53-5.26c7.96-3.5,14.74-8.32,20.31-14.46,5.58-6.13,9.88-13.34,12.91-21.63,3.03-8.28,4.54-17.12,4.54-26.53Z"/>
          <path class="f" d="M4123.82,661.48h51.62c9.08,0,17.37.92,24.86,2.75,7.49,1.83,13.86,4.66,19.12,8.49,5.26,3.82,9.32,8.69,12.19,14.58,2.87,5.9,4.3,12.99,4.3,21.27s-1.55,15.7-4.66,21.75c-3.11,6.06-7.41,10.99-12.91,14.82-5.5,3.82-12.03,6.65-19.6,8.48-7.57,1.83-15.74,2.75-24.5,2.75h-26.77v74.33h-23.66v-169.21ZM4147.49,736.29h25.09c5.74,0,11.03-.51,15.89-1.55,4.86-1.03,9.04-2.63,12.55-4.78,3.5-2.15,6.21-4.98,8.13-8.48,1.91-3.5,2.87-7.81,2.87-12.91s-1-9.36-2.99-12.79c-1.99-3.42-4.7-6.21-8.13-8.37-3.43-2.15-7.53-3.66-12.31-4.54-4.78-.87-9.96-1.31-15.54-1.31h-25.57v54.73Z"/>
          <path class="f" d="M4289.69,809.66h88.43v21.03h-112.09v-169.21h108.51v20.79h-84.84v50.67h79.83v20.32h-79.83v56.4Z"/>
          <path class="f" d="M4433.32,830.69h-23.66v-169.21h54.25c8.13,0,15.85.84,23.18,2.51,7.33,1.67,13.74,4.34,19.24,8.01,5.5,3.67,9.84,8.48,13.03,14.46,3.19,5.97,4.78,13.26,4.78,21.87,0,12.43-3.82,22.47-11.47,30.11-7.65,7.65-17.53,12.51-29.64,14.58l47.32,77.67h-28.68l-43.02-75.29h-25.33v75.29ZM4433.32,735.57h27.25c5.58,0,10.75-.48,15.54-1.43s8.96-2.51,12.55-4.66c3.58-2.15,6.41-4.94,8.48-8.36,2.07-3.42,3.11-7.69,3.11-12.79s-1.04-9.36-3.11-12.79c-2.07-3.42-4.82-6.17-8.25-8.25-3.43-2.07-7.45-3.54-12.07-4.42-4.62-.87-9.48-1.31-14.58-1.31h-28.92v54.01Z"/>
        </g>
        <g>
          <path class="e" d="M288.16,406.86h-126.76l-24.71,85.13H36.25L166.5,104.47h120.58l130.25,387.52h-104.74l-24.44-85.13ZM180.47,335.96h88.35l-42.97-149.32h-2.15l-43.24,149.32Z"/>
          <path class="e" d="M454.39,491.99V104.47h78.69l164.36,225.32h2.15V104.47h93.46v387.52h-77.88l-165.16-227.47h-2.15v227.47h-93.46Z"/>
          <path class="e" d="M941.55,491.99V183.96h-106.88v-79.49h312.06v79.49h-106.88v308.03h-98.29Z"/>
          <path class="e" d="M1540.16,298.36c0,123.54-73.85,200.34-191.21,200.34s-191.48-76.81-191.48-200.34,74.12-200.61,191.48-200.61,191.21,77.08,191.21,200.61ZM1257.91,298.36c0,73.58,35.72,120.31,91.04,120.31s91.04-46.73,91.04-120.31-35.99-120.58-91.04-120.58-91.04,46.73-91.04,120.58Z"/>
          <path class="e" d="M1588.23,491.99V104.47h78.69l164.36,225.32h2.15V104.47h93.46v387.52h-77.88l-165.16-227.47h-2.15v227.47h-93.46Z"/>
          <path class="e" d="M2097.41,491.99v-133.2l-133.47-254.32h105.81l77.08,161.13h1.88l76.81-161.13h103.93l-133.47,254.32v133.2h-98.56Z"/>
          <path class="e" d="M2640.96,104.47c83.25,0,139.65,53.98,139.65,137.23s-59.35,136.69-145.56,136.69h-63.38v113.6h-98.56V104.47h167.85ZM2571.68,304.27h42.7c41.89,0,66.6-21.75,66.6-62.3s-24.71-62.04-66.06-62.04h-43.24v124.34Z"/>
          <path class="e" d="M3089.99,491.99h-265.6V104.47h265.6v79.49h-167.04v77.08h157.1v72.51h-157.1v78.96h167.04v79.49Z"/>
          <path class="e" d="M3235.54,491.99V183.96h-106.88v-79.49h312.06v79.49h-106.88v308.03h-98.29Z"/>
          <path class="e" d="M3563.72,379.74c3.49,26.59,33.3,44.31,69.82,44.31,38.4,0,63.38-17.19,63.38-40.55,0-21.48-16.38-31.96-60.42-41.09l-50.76-9.94c-71.44-13.7-108.23-52.37-108.23-111.18,0-75.2,64.45-123.54,154.15-123.54,96.95,0,154.15,47,155.22,119.78h-90.77c-1.88-28.2-27.93-45.12-63.38-45.12s-57.2,15.58-57.2,39.21c0,20.95,17.19,32.5,57.74,40.82l50.22,9.4c76.54,14.77,110.91,49.41,110.91,110.64,0,77.08-63.65,126.22-163.55,126.22s-159.79-43.77-160.86-118.97h93.73Z"/>
          <path class="e" d="M4058.66,406.86h-126.76l-24.71,85.13h-100.44l130.25-387.52h120.58l130.25,387.52h-104.74l-24.44-85.13ZM3950.97,335.96h88.35l-42.97-149.32h-2.15l-43.24,149.32Z"/>
          <path class="e" d="M4293.92,379.74c3.49,26.59,33.3,44.31,69.82,44.31,38.4,0,63.38-17.19,63.38-40.55,0-21.48-16.38-31.96-60.42-41.09l-50.76-9.94c-71.44-13.7-108.23-52.37-108.23-111.18,0-75.2,64.45-123.54,154.15-123.54,96.95,0,154.15,47,155.22,119.78h-90.77c-1.88-28.2-27.93-45.12-63.38-45.12s-57.2,15.58-57.2,39.21c0,20.95,17.19,32.5,57.74,40.82l50.22,9.4c76.54,14.77,110.91,49.41,110.91,110.64,0,77.08-63.65,126.22-163.55,126.22s-159.79-43.77-160.86-118.97h93.73Z"/>
        </g>
      </g>
    </g>
  </g>
</svg>