<?xml version="1.0" encoding="UTF-8"?>
<svg id="b" data-name="Layer 2" xmlns="http://www.w3.org/2000/svg" viewBox="0 0 5605.44 1042.91">
  <defs>
    <style>
      .d {
        fill: #fff;
      }
    </style>
  </defs>
  <g id="c" data-name="Layer 1">
    <g>
      <path class="d" d="M476.99,84c18.51,0,36.76,4.89,52.78,14.14l287.42,165.94c32.56,18.8,52.78,53.83,52.78,91.42v331.89c0,37.6-20.23,72.63-52.78,91.43l-287.42,165.94c-16.03,9.25-34.28,14.14-52.78,14.14s-36.76-4.89-52.78-14.14l-287.42-165.94c-32.56-18.8-52.78-53.83-52.78-91.42v-331.89c0-37.59,20.23-72.63,52.78-91.42L424.21,98.14c16.03-9.25,34.28-14.14,52.78-14.14M476.99,0c-32.73,0-65.45,8.46-94.78,25.4L94.78,191.34C36.13,225.2,0,287.79,0,355.51v331.89c0,67.73,36.13,130.31,94.78,164.17l287.42,165.94c29.33,16.93,62.06,25.4,94.78,25.4s65.46-8.47,94.78-25.4l287.42-165.94c58.65-33.86,94.78-96.44,94.78-164.17v-331.89c0-67.73-36.13-130.31-94.78-164.17L571.78,25.4C542.45,8.47,509.72,0,476.99,0h0Z"/>
      <g>
        <path class="d" d="M486.08,714.15h-87.54l-79.28-226.83c-2.75-8.26-14.86-10.46-18.72,0l-79.28,226.83h-87.54l121.12-346.3c19.27-52.85,90.84-52.85,110.11,0l121.12,346.3Z"/>
        <path class="d" d="M464.05,590.28c0-73.77,36.34-110.11,110.11-110.11h125.53c46.8,0,47.35-68.82,0-68.82h-235.64v-82.58h235.64c160.76,0,160.21,233.98,0,233.98h-111.76c-27.53,0-41.29,13.76-41.29,41.29v110.11h-82.58v-123.87Z"/>
      </g>
    </g>
    <g>
      <path class="d" d="M1358.95,417.59h-126.76l-24.71,85.13h-100.44l130.25-387.52h120.58l130.25,387.52h-104.74l-24.44-85.13ZM1251.26,346.69h88.35l-42.97-149.32h-2.15l-43.24,149.32Z"/>
      <path class="d" d="M1525.19,502.72V115.19h78.69l164.36,225.32h2.15V115.19h93.46v387.52h-77.88l-165.16-227.47h-2.15v227.47h-93.46Z"/>
      <path class="d" d="M2012.34,502.72V194.69h-106.88v-79.49h312.06v79.49h-106.88v308.03h-98.29Z"/>
      <path class="d" d="M2610.95,309.09c0,123.54-73.85,200.34-191.21,200.34s-191.48-76.81-191.48-200.34,74.12-200.61,191.48-200.61,191.21,77.08,191.21,200.61ZM2328.7,309.09c0,73.58,35.72,120.31,91.04,120.31s91.04-46.73,91.04-120.31-35.99-120.58-91.04-120.58-91.04,46.73-91.04,120.58Z"/>
      <path class="d" d="M2659.02,502.72V115.19h78.69l164.36,225.32h2.15V115.19h93.46v387.52h-77.88l-165.16-227.47h-2.15v227.47h-93.46Z"/>
      <path class="d" d="M3168.2,502.72v-133.2l-133.47-254.32h105.81l77.08,161.13h1.88l76.81-161.13h103.93l-133.47,254.32v133.2h-98.56Z"/>
      <path class="d" d="M3711.76,115.19c83.25,0,139.65,53.98,139.65,137.23s-59.35,136.69-145.56,136.69h-63.38v113.6h-98.56V115.19h167.85ZM3642.47,315h42.7c41.89,0,66.6-21.75,66.6-62.3s-24.71-62.04-66.06-62.04h-43.24v124.34Z"/>
      <path class="d" d="M4160.78,502.72h-265.6V115.19h265.6v79.49h-167.04v77.08h157.1v72.51h-157.1v78.96h167.04v79.49Z"/>
      <path class="d" d="M4306.34,502.72V194.69h-106.88v-79.49h312.06v79.49h-106.88v308.03h-98.29Z"/>
      <path class="d" d="M4634.51,390.46c3.49,26.59,33.3,44.31,69.82,44.31,38.4,0,63.38-17.19,63.38-40.55,0-21.48-16.38-31.96-60.42-41.09l-50.76-9.94c-71.44-13.7-108.23-52.37-108.23-111.18,0-75.2,64.45-123.54,154.15-123.54,96.95,0,154.15,47,155.22,119.78h-90.77c-1.88-28.2-27.93-45.12-63.38-45.12s-57.2,15.58-57.2,39.21c0,20.95,17.19,32.5,57.74,40.82l50.22,9.4c76.54,14.77,110.91,49.41,110.91,110.64,0,77.08-63.65,126.22-163.55,126.22s-159.79-43.77-160.86-118.97h93.73Z"/>
      <path class="d" d="M5129.46,417.59h-126.76l-24.71,85.13h-100.44l130.25-387.52h120.58l130.25,387.52h-104.74l-24.44-85.13ZM5021.77,346.69h88.35l-42.97-149.32h-2.15l-43.24,149.32Z"/>
      <path class="d" d="M5364.71,390.46c3.49,26.59,33.3,44.31,69.82,44.31,38.4,0,63.38-17.19,63.38-40.55,0-21.48-16.38-31.96-60.42-41.09l-50.76-9.94c-71.44-13.7-108.23-52.37-108.23-111.18,0-75.2,64.45-123.54,154.15-123.54,96.95,0,154.15,47,155.22,119.78h-90.77c-1.88-28.2-27.93-45.12-63.38-45.12s-57.2,15.58-57.2,39.21c0,20.95,17.19,32.5,57.74,40.82l50.22,9.4c76.54,14.77,110.91,49.41,110.91,110.64,0,77.08-63.65,126.22-163.55,126.22s-159.79-43.77-160.86-118.97h93.73Z"/>
      <path class="d" d="M1123.53,927.72v-250.13h151.85v28.08h-120.64v85.98h110.76v27.73h-110.76v108.34h-31.2Z"/>
      <path class="d" d="M1373.35,837.93c0,37.79,24.79,65.18,68.12,65.18s68.12-27.39,68.12-65.18v-160.34h31.2v162.42c0,53.39-37.27,91.87-99.32,91.87s-99.32-38.48-99.32-91.87v-162.42h31.2v160.34Z"/>
      <path class="d" d="M1772.41,927.72h-151.85v-250.13h31.2v222.05h120.64v28.08Z"/>
      <path class="d" d="M1989.82,927.72h-151.85v-250.13h31.2v222.05h120.64v28.08Z"/>
      <path class="d" d="M2178.84,858.9c2.95,27.04,28.6,44.9,64.31,44.9,33.8,0,58.42-17.85,58.42-42.47,0-21.15-14.73-34.15-48.36-42.81l-32.07-8.32c-46.11-11.79-66.56-32.07-66.56-66.04,0-41.6,36.4-70.72,88.4-70.72s85.8,29.47,87.19,71.42h-31.2c-2.77-26.87-24.44-43.33-57.03-43.33s-54.95,16.81-54.95,41.25c0,18.89,13.87,30.16,47.84,39l26.17,6.93c51.83,13,72.8,32.93,72.8,68.82,0,45.76-36.05,74.36-93.6,74.36-53.04,0-89.79-28.77-92.74-72.98h31.38Z"/>
      <path class="d" d="M2464.72,927.72v-222.05h-78.87v-28.08h188.94v28.08h-78.87v222.05h-31.2Z"/>
      <path class="d" d="M2741.75,856.13h-99.5l-25.13,71.59h-32.76l92.22-250.13h30.85l92.22,250.13h-32.76l-25.13-71.59ZM2651.44,829.61h81.12l-40.04-114.06h-1.04l-40.04,114.06Z"/>
      <path class="d" d="M2842.85,802.57c0-78.52,44.2-129.14,112.67-129.14,54.43,0,95.86,33.11,103.83,83.03h-31.55c-7.97-32.76-36.57-54.26-72.28-54.26-48.88,0-80.6,39.52-80.6,100.36s31.37,100.54,80.78,100.54c36.75,0,63.1-17.68,72.11-48.19h31.55c-11.44,49.4-48.54,76.96-103.83,76.96-68.99,0-112.67-50.1-112.67-129.31Z"/>
      <path class="d" d="M3127.34,927.72v-250.13h31.2v122.03h1.73l110.42-122.03h39.35l-102.79,110.76,111.98,139.37h-39.87l-93.78-117.18-27.04,29.81v87.36h-31.2Z"/>
      <path class="d" d="M3565.1,677.59c74.19,0,118.04,46.28,118.04,124.98s-43.68,125.15-118.04,125.15h-84.07v-250.13h84.07ZM3512.23,899.64h50.79c56.68,0,88.23-34.67,88.23-96.72s-31.38-97.24-88.23-97.24h-50.79v193.97Z"/>
      <path class="d" d="M3908,927.72h-154.97v-250.13h154.97v28.08h-123.76v80.26h117.35v27.73h-117.35v85.98h123.76v28.08Z"/>
      <path class="d" d="M4052.61,927.72l-92.22-250.13h32.76l74.36,212.17h1.04l74.36-212.17h32.76l-92.22,250.13h-30.86Z"/>
      <path class="d" d="M4390.49,927.72h-154.97v-250.13h154.97v28.08h-123.76v80.26h117.35v27.73h-117.35v85.98h123.76v28.08Z"/>
      <path class="d" d="M4614.65,927.72h-151.85v-250.13h31.2v222.05h120.64v28.08Z"/>
      <path class="d" d="M4890.65,802.74c0,79.39-44.38,129.14-115.27,129.14s-115.27-49.75-115.27-129.14,44.38-129.31,115.27-129.31,115.27,49.92,115.27,129.31ZM4692.17,802.74c0,61.54,32.07,100.36,83.2,100.36s83.2-38.83,83.2-100.36-32.07-100.54-83.2-100.54-83.2,38.83-83.2,100.54Z"/>
      <path class="d" d="M5049.99,677.59c46.98,0,80.08,32.93,80.08,80.26s-33.46,80.6-80.43,80.6h-57.72v89.27h-31.2v-250.13h89.27ZM4991.92,810.71h49.92c35.71,0,56.16-19.59,56.16-52.87s-20.28-52.52-56.16-52.52h-49.92v105.39Z"/>
      <path class="d" d="M5351.98,927.72h-154.97v-250.13h154.97v28.08h-123.76v80.26h117.35v27.73h-117.35v85.98h123.76v28.08Z"/>
      <path class="d" d="M5455.5,927.72h-31.2v-250.13h93.78c48.19,0,79.74,29.47,79.74,74.54,0,34.84-18.89,61.88-50.27,71.76l57.89,103.83h-36.57l-53.56-98.98h-59.8v98.98ZM5455.5,801.18h59.8c32.07,0,50.27-17.33,50.27-48.02s-19.41-47.84-51.66-47.84h-58.42v95.86Z"/>
    </g>
  </g>
</svg>